<svg width="32" height="32" viewBox="0 0 32 32" fill="none" xmlns="http://www.w3.org/2000/svg">
<path d="M27.266 27.2638H22.5245V19.8384C22.5245 18.0677 22.4929 15.7884 20.0585 15.7884C17.5889 15.7884 17.211 17.7175 17.211 19.7095V27.2632H12.4697V11.9937H17.0214V14.0804H17.0852C18.012 12.4958 19.7416 11.5458 21.5763 11.6139C26.3819 11.6139 27.2681 14.7748 27.2681 18.8872L27.266 27.2638ZM7.11967 9.90636C5.6102 9.90636 4.36753 8.66441 4.36753 7.15494C4.36753 5.64547 5.60962 4.40337 7.11909 4.40337C8.62842 4.40337 9.87037 5.64518 9.87066 7.15436C9.87066 8.66355 8.62885 9.90622 7.11967 9.90636ZM9.49036 27.2638H4.74396V11.9937H9.49036V27.2638ZM29.6297 0.000203093H2.36125C1.08122 -0.0142532 0.0156014 1.0266 0 2.30663V29.6883C0.0150288 30.9691 1.08051 32.0111 2.36125 31.9973H29.6297C30.9136 32.0135 31.9828 30.9717 32 29.6883V2.30477C31.9828 1.02202 30.9122 -0.0166865 29.6297 0.000203093Z" fill="#0A66C2"/>
</svg>
